<?xml version="1.0" encoding="UTF-8" standalone="no"?>
<!-- Svg Vector Icons : http://www.onlinewebfonts.com/icon -->

<svg
   xmlns:dc="http://purl.org/dc/elements/1.1/"
   xmlns:cc="http://creativecommons.org/ns#"
   xmlns:rdf="http://www.w3.org/1999/02/22-rdf-syntax-ns#"
   xmlns:svg="http://www.w3.org/2000/svg"
   xmlns="http://www.w3.org/2000/svg"
   xmlns:xlink="http://www.w3.org/1999/xlink"
   xmlns:sodipodi="http://sodipodi.sourceforge.net/DTD/sodipodi-0.dtd"
   xmlns:inkscape="http://www.inkscape.org/namespaces/inkscape"
   version="1.1"
   x="0px"
   y="0px"
   viewBox="0 0 2939.1355 2796.0403"
   enable-background="new 0 0 1000 1000"
   xml:space="preserve"
   id="svg2"
   inkscape:version="0.91 r13725"
   sodipodi:docname="resync.svg"
   width="2939.1355"
   height="2796.0403"
   inkscape:export-filename="/home/eric/data/WORK/PROJECT/TOOL/RESYNC/LOGO/resync.png"
   inkscape:export-xdpi="90"
   inkscape:export-ydpi="90"><defs
     id="defs78"><linearGradient
       inkscape:collect="always"
       id="linearGradient4336"><stop
         style="stop-color:#454ae3;stop-opacity:1;"
         offset="0"
         id="stop4338" /><stop
         style="stop-color:#454ae3;stop-opacity:0;"
         offset="1"
         id="stop4340" /></linearGradient><linearGradient
       inkscape:collect="always"
       id="linearGradient4328"><stop
         style="stop-color:#e34545;stop-opacity:1;"
         offset="0"
         id="stop4330" /><stop
         style="stop-color:#e34545;stop-opacity:0;"
         offset="1"
         id="stop4332" /></linearGradient><linearGradient
       inkscape:collect="always"
       xlink:href="#linearGradient4328"
       id="linearGradient4334"
       x1="32.195293"
       y1="669.61633"
       x2="286.91113"
       y2="1172.0953"
       gradientUnits="userSpaceOnUse" /><linearGradient
       inkscape:collect="always"
       xlink:href="#linearGradient4336"
       id="linearGradient4342"
       x1="988.04877"
       y1="358.40027"
       x2="713.16278"
       y2="-169.9384"
       gradientUnits="userSpaceOnUse" /><linearGradient
       inkscape:collect="always"
       xlink:href="#linearGradient4336"
       id="linearGradient4952"
       gradientUnits="userSpaceOnUse"
       x1="988.04877"
       y1="358.40027"
       x2="713.16278"
       y2="-169.9384" /><linearGradient
       inkscape:collect="always"
       xlink:href="#linearGradient4328"
       id="linearGradient4954"
       gradientUnits="userSpaceOnUse"
       x1="32.195293"
       y1="669.61633"
       x2="286.91113"
       y2="1172.0953" /></defs><sodipodi:namedview
     pagecolor="#ffffff"
     bordercolor="#666666"
     borderopacity="1"
     objecttolerance="10"
     gridtolerance="10"
     guidetolerance="10"
     inkscape:pageopacity="0"
     inkscape:pageshadow="2"
     inkscape:window-width="1920"
     inkscape:window-height="1056"
     id="namedview76"
     showgrid="false"
     showguides="true"
     inkscape:guide-bbox="true"
     inkscape:zoom="0.19707086"
     inkscape:cx="1013.0253"
     inkscape:cy="1369.0754"
     inkscape:window-x="0"
     inkscape:window-y="0"
     inkscape:window-maximized="1"
     inkscape:current-layer="svg2"
     fit-margin-top="100"
     fit-margin-left="500"
     fit-margin-right="500"
     fit-margin-bottom="100" /><metadata
     id="metadata4"> Svg Vector Icons : http://www.onlinewebfonts.com/icon <rdf:RDF><cc:Work
     rdf:about=""><dc:format>image/svg+xml</dc:format><dc:type
       rdf:resource="http://purl.org/dc/dcmitype/StillImage" /><dc:title></dc:title></cc:Work></rdf:RDF></metadata><g
     id="g4960"
     transform="translate(-16.53856,-187.5978)"><g
       style="fill:url(#linearGradient4342);fill-opacity:1"
       id="g4322"
       transform="matrix(1.4274739,0.72680663,-0.72680663,1.4274739,1142.0099,88.278093)"><path
         style="fill:url(#linearGradient4952);fill-opacity:1"
         d="M 592.9,690.8 519.6,547.1 411.1,881.5 745.5,990 672.8,847.4 c 171.1,-61 293.5,-224 293.5,-416 C 966.3,233.8 836.6,66.6 657.6,10 765.4,78 837.3,197.8 837.3,334.6 837.4,497.2 735.6,634.8 592.9,690.8 Z"
         id="path4326"
         inkscape:connector-curvature="0" /></g><g
       style="fill:url(#linearGradient4334);fill-opacity:1"
       transform="matrix(1.4274739,0.72680663,-0.72680663,1.4274739,1129.4111,88.278093)"
       id="g10"><path
         style="fill:url(#linearGradient4954);fill-opacity:1"
         inkscape:connector-curvature="0"
         id="path12"
         d="M 407.2,309.3 480.5,453 589,118.5 254.6,10 327.3,152.6 c -171,61.1 -293.5,224 -293.5,416 0,197.6 129.7,364.9 308.7,421.4 C 234.7,922 162.9,802.1 162.9,665.4 162.7,502.8 264.5,365.2 407.2,309.3 Z" /></g></g><g
     id="g16"
     transform="matrix(0.89113972,0.45372898,-0.45372898,0.89113972,264.76151,1639.9452)" /><g
     id="g18"
     transform="matrix(0.89113972,0.45372898,-0.45372898,0.89113972,264.76151,1639.9452)" /><g
     id="g20"
     transform="matrix(0.89113972,0.45372898,-0.45372898,0.89113972,264.76151,1639.9452)" /><g
     id="g22"
     transform="matrix(0.89113972,0.45372898,-0.45372898,0.89113972,264.76151,1639.9452)" /><g
     id="g24"
     transform="matrix(0.89113972,0.45372898,-0.45372898,0.89113972,264.76151,1639.9452)" /><g
     id="g26"
     transform="matrix(0.89113972,0.45372898,-0.45372898,0.89113972,264.76151,1639.9452)" /><g
     id="g28"
     transform="matrix(0.89113972,0.45372898,-0.45372898,0.89113972,264.76151,1639.9452)" /><g
     id="g30"
     transform="matrix(0.89113972,0.45372898,-0.45372898,0.89113972,264.76151,1639.9452)" /><g
     id="g32"
     transform="matrix(0.89113972,0.45372898,-0.45372898,0.89113972,264.76151,1639.9452)" /><g
     id="g34"
     transform="matrix(0.89113972,0.45372898,-0.45372898,0.89113972,264.76151,1639.9452)" /><g
     id="g36"
     transform="matrix(0.89113972,0.45372898,-0.45372898,0.89113972,264.76151,1639.9452)" /><g
     id="g38"
     transform="matrix(0.89113972,0.45372898,-0.45372898,0.89113972,264.76151,1639.9452)" /><g
     id="g40"
     transform="matrix(0.89113972,0.45372898,-0.45372898,0.89113972,264.76151,1639.9452)" /><g
     id="g42"
     transform="matrix(0.89113972,0.45372898,-0.45372898,0.89113972,264.76151,1639.9452)" /><g
     id="g44"
     transform="matrix(0.89113972,0.45372898,-0.45372898,0.89113972,264.76151,1639.9452)" /><g
     id="g46"
     transform="matrix(0.89113972,0.45372898,-0.45372898,0.89113972,264.76151,1639.9452)" /><g
     id="g48"
     transform="matrix(0.89113972,0.45372898,-0.45372898,0.89113972,264.76151,1639.9452)" /><g
     id="g50"
     transform="matrix(0.89113972,0.45372898,-0.45372898,0.89113972,264.76151,1639.9452)" /><g
     id="g52"
     transform="matrix(0.89113972,0.45372898,-0.45372898,0.89113972,264.76151,1639.9452)" /><g
     id="g54"
     transform="matrix(0.89113972,0.45372898,-0.45372898,0.89113972,264.76151,1639.9452)" /><g
     id="g56"
     transform="matrix(0.89113972,0.45372898,-0.45372898,0.89113972,264.76151,1639.9452)" /><g
     id="g58"
     transform="matrix(0.89113972,0.45372898,-0.45372898,0.89113972,264.76151,1639.9452)" /><g
     id="g60"
     transform="matrix(0.89113972,0.45372898,-0.45372898,0.89113972,264.76151,1639.9452)" /><g
     id="g62"
     transform="matrix(0.89113972,0.45372898,-0.45372898,0.89113972,264.76151,1639.9452)" /><g
     id="g64"
     transform="matrix(0.89113972,0.45372898,-0.45372898,0.89113972,264.76151,1639.9452)" /><g
     id="g66"
     transform="matrix(0.89113972,0.45372898,-0.45372898,0.89113972,264.76151,1639.9452)" /><g
     id="g68"
     transform="matrix(0.89113972,0.45372898,-0.45372898,0.89113972,264.76151,1639.9452)" /><g
     id="g70"
     transform="matrix(0.89113972,0.45372898,-0.45372898,0.89113972,264.76151,1639.9452)" /><g
     id="g72"
     transform="matrix(0.89113972,0.45372898,-0.45372898,0.89113972,264.76151,1639.9452)" /><g
     id="g74"
     transform="matrix(0.89113972,0.45372898,-0.45372898,0.89113972,264.76151,1639.9452)" /><text
     xml:space="preserve"
     style="font-style:normal;font-variant:normal;font-weight:normal;font-stretch:normal;font-size:51.61584854px;line-height:125%;font-family:Ubuntu;-inkscape-font-specification:Ubuntu;letter-spacing:0px;word-spacing:0px;fill:#000000;fill-opacity:1;stroke:none;stroke-width:1px;stroke-linecap:butt;stroke-linejoin:miter;stroke-opacity:1"
     x="432.25418"
     y="2544.4187"
     id="text4344"
     sodipodi:linespacing="125%"><tspan
       sodipodi:role="line"
       id="tspan4346"
       x="432.25418"
       y="2544.4187"
       style="font-style:normal;font-variant:normal;font-weight:normal;font-stretch:normal;font-size:806.49768066px;font-family:'Ubuntu Condensed';-inkscape-font-specification:'Ubuntu Condensed, ';letter-spacing:0px"><tspan
         style="fill:#f03838;fill-opacity:1"
         id="tspan4348">Re</tspan><tspan
         style="fill:#3a3a3a;fill-opacity:1"
         id="tspan4944">sync</tspan></tspan></text>
</svg>